# xmcd
#
# Track frame offsets:
#	150
#	13672
#	26082
#	37725
#	50510
#	62587
#	73802
#	85705
#	97530
#	111267
#	125765
#	137405
#
# Disc length: 1982 seconds
#
# Revision: 0
# Processed by: cddbd v1.5.2PL0 Copyright (c) Steve Scherf et al.
# Submitted via: audiograbber 1.83.01
#
DISCID=9507bc0c
DTITLE=Four Tops, The - Reach out
DYEAR=1967
DGENRE=Soul
TTITLE0=Reach out I'll be there
TTITLE1=Walk away Renee
TTITLE2=7-rooms of gloom
TTITLE3=If I were a carpenter
TTITLE4=Last train to Clarksville
TTITLE5=I'll turn to stone
TTITLE6=I'm a believer
TTITLE7=Standing in the shadows of love
TTITLE8=Bernadette
TTITLE9=Cherish
TTITLE10=Wonderful baby
TTITLE11=What else is there to do (but think about you)
EXTD=
EXTT0=
EXTT1=
EXTT2=
EXTT3=
EXTT4=
EXTT5=
EXTT6=
EXTT7=
EXTT8=
EXTT9=
EXTT10=
EXTT11=
PLAYORDER=
